<svg xmlns="http://www.w3.org/2000/svg" viewBox="0 0 410 404">
  <defs>
    <linearGradient x1="15.271%" y1="16.273%" x2="84.753%" y2="82.002%" id="a">
      <stop stop-color="#41D1FF" offset="0%"/>
      <stop stop-color="#BD34FE" offset="100%"/>
    </linearGradient>
    <linearGradient x1="24.964%" y1="11.287%" x2="55.627%" y2="89.621%" id="b">
      <stop stop-color="#FFEA83" offset="0%"/>
      <stop stop-color="#FFDD35" offset="8.333%"/>
      <stop stop-color="#FFA800" offset="100%"/>
    </linearGradient>
  </defs>
  <path fill="url(#a)" d="M399.641 59.525l-183.4 327.963c-6.8 12.167-24.444 12.192-31.287.044L10.453 59.559c-7.3-12.733 3.874-27.63 18.607-24.51l176.966 38.066a17.114 17.114 0 0 0 6.833-.003l168.731-36.85c14.693-3.205 26.008 12.143 18.72 24.81z"/>
  <path fill="url(#b)" d="M292.562 1.592L156.3 28.464a8.533 8.533 0 0 0-6.864 7.684l-7.79 161.015a8.533 8.533 0 0 0 10.105 8.777l37.657-7.83c6.013-1.251 11.413 3.74 10.3 9.816l-11.188 61.03c-1.14 6.215 4.87 11.38 10.805 9.212l23.264-8.528c5.927-2.173 12.07 2.768 10.806 8.886l-17.698 86.813c-1.91 9.471 10.47 14.8 15.588 6.825l1.276-2.027 109.797-219.066c2.986-5.966-1.906-12.788-8.599-11.447l-38.73 7.748c-6.137 1.228-11.513-3.964-10.29-10.077l25.347-130.317c1.22-6.27-3.771-11.937-10.065-10.703z"/>
</svg>

